<?xml version="1.0" encoding="utf-8"?>
<!-- Generator: Adobe Illustrator 24.2.1, SVG Export Plug-In . SVG Version: 6.00 Build 0)  -->
<svg version="1.1" id="Layer_1" xmlns="http://www.w3.org/2000/svg" xmlns:xlink="http://www.w3.org/1999/xlink" x="0px" y="0px"
	 viewBox="0 0 512 512" style="enable-background:new 0 0 512 512;" xml:space="preserve">
<style type="text/css">
	.st0{fill:#EF7F4D;}
	.st1{fill:#CC6A44;}
	.st2{fill:#282828;}
	.st3{fill:#CCCCCC;}
	.st4{fill:#8C8C8C;}
	.st5{fill:#515151;}
</style>
<g>
	<circle class="st0" cx="292" cy="194.8" r="129.8"/>
	<g>
		<path class="st1" d="M195.3,108.3l183.3,183.3c3.6-3.2,7-6.6,10.2-10.2L205.5,98.1C201.9,101.3,198.5,104.7,195.3,108.3z"/>
		<path class="st1" d="M195.3,281.3c3.2,3.6,6.6,7,10.2,10.2l183.3-183.3c-3.2-3.6-6.6-7-10.2-10.2L195.3,281.3z"/>
		<path class="st1" d="M284.9,65.2c-4.8,0.3-9.6,0.8-14.3,1.6c4.5,38.1,21.7,73.6,48.8,100.7c27.2,27.1,62.6,44.3,100.7,48.8
			c0.8-4.7,1.3-9.5,1.6-14.3C349.9,193.5,293.3,136.9,284.9,65.2L284.9,65.2z M162.4,187.7c71.7,8.4,128.3,65,136.7,136.7
			c4.8-0.3,9.6-0.8,14.3-1.6c-9.2-78.4-71-140.3-149.5-149.5C163.2,178.1,162.7,182.9,162.4,187.7L162.4,187.7z"/>
	</g>
</g>
<rect x="59.9" y="290.7" transform="matrix(0.5801 -0.8146 0.8146 0.5801 -206.7756 227.2528)" class="st2" width="114.3" height="46.9"/>
<rect x="180" y="295" class="st3" width="21.3" height="169"/>
<rect x="233.2" y="295" class="st3" width="21.3" height="169"/>
<rect x="286.3" y="295" class="st3" width="21.3" height="169"/>
<rect x="339.5" y="295" class="st3" width="21.3" height="169"/>
<rect x="392.7" y="295" class="st3" width="21.3" height="169"/>
<rect x="181.8" y="321.9" class="st3" width="221.6" height="21.3"/>
<rect x="181.7" y="370.1" class="st3" width="221.6" height="21.3"/>
<rect x="188" y="413.5" class="st3" width="221.6" height="21.3"/>
<path class="st4" d="M464,248H72v48h392c13.3,0,24-10.7,24-24S477.3,248,464,248L464,248z"/>
<path class="st5" d="M58,24h48v464H58V24z"/>
</svg>
